<svg width="400" height="400" viewBox="0 0 105.83333 105.83333" version="1.1" id="svg5" xml:space="preserve"
     xmlns="http://www.w3.org/2000/svg">
    <g>
        <g id="g10757" transform="matrix(0.55856924,0,0,0.55856924,16.190737,17.168235)">
            <path
                    fill="#fd9e35"
                    d="m 31.935,30.439 a 1.75,1.75 0 0 0 -1.75,1.75 V 58.1 a 1.75,1.75 0 0 0 3.5,0 V 32.189 a 1.75,1.75 0 0 0 -1.75,-1.75 z"
                    id="path10737"/>
            <path
                    fill="#3647d7"
                    d="m 117,67.953 a 1.75,1.75 0 0 0 -1.75,1.75 v 32.136 a 1.75,1.75 0 0 0 3.5,0 V 69.7 A 1.75,1.75 0 0 0 117,67.953 Z"
                    id="path10739"/>
            <path
                    fill="#b20944"
                    d="m 53.5,53.37 a 1.75,1.75 0 0 0 -1.75,1.75 v 32.416 a 1.75,1.75 0 0 0 3.5,0 V 55.12 A 1.75,1.75 0 0 0 53.5,53.37 Z m 38.609,-5.917 a 1.75,1.75 0 0 0 -1.75,1.75 V 81.62 a 1.75,1.75 0 0 0 3.5,0 V 49.2 a 1.75,1.75 0 0 0 -1.75,-1.747 z"
                    class=""
                    id="path10741"/>
            <path
                    fill="#fc445e"
                    d="M 93.859,52.255 51.75,58.844 V 42.06 l 41.764,-6.535 z"
                    id="path10743"/>
            <ellipse
                    cx="42.153999"
                    cy="87.536003"
                    fill="#fc445e"
                    rx="13.096"
                    ry="11.833"
                    id="ellipse10745"/>
            <ellipse
                    cx="80.764"
                    cy="81.620003"
                    fill="#b20944"
                    rx="13.096"
                    ry="11.833"
                    class=""
                    id="ellipse10747"/>
            <path fill="#fed33c"
                  d="M 51.916,30.118 30.185,35.37 V 21.955 l 21.731,-5.252 z"
                  class=""
                  id="path10749"/>
            <ellipse cx="23.216999"
                     cy="58.098999"
                     fill="#fed33c"
                     rx="10.467"
                     ry="9.4580002"
                     class=""
                     id="ellipse10751"/>
            <ellipse cx="108.283"
                     cy="101.839"
                     fill="#606de0"
                     rx="10.467"
                     ry="9.4580002"
                     id="ellipse10753"/>
            <path fill="#b20944"
                  d="M 67.668,56.353 93.859,52.255 93.514,35.525 67.668,39.569 Z"
                  class=""
                  id="path10755"/>
        </g>
    </g>
</svg>
